<svg width="52" height="56" viewBox="0 0 52 56" fill="none" xmlns="http://www.w3.org/2000/svg">
            <path
                d="M7.79732 53L8.91913 52.6963C9.74572 52.4749 10.5932 52.3813 11.4614 52.4167C12.3297 52.4522 13.1615 52.614 13.9568 52.9021C14.094 52.6183 14.2711 52.3529 14.4882 52.106C14.7053 51.8576 14.9553 51.6348 15.2384 51.4361C15.5215 51.2375 15.8306 51.0686 16.1622 50.9309C16.4957 50.7933 16.8447 50.6897 17.2076 50.6202C17.2927 50.325 17.4195 50.0412 17.5879 49.7701C17.7564 49.4991 17.9613 49.2479 18.2044 49.0166C18.4475 48.7867 18.7219 48.5823 19.0241 48.4063C19.328 48.2289 19.6527 48.0842 20 47.9721L19.7916 47.6301C19.4877 47.132 19.1126 46.6736 18.6663 46.2521C18.22 45.8321 17.7164 45.4631 17.1555 45.1452C16.5964 44.8288 15.9955 44.5719 15.3565 44.3789C14.7174 44.1845 14.0576 44.0582 13.3786 44C13.2605 44.3434 13.1129 44.6798 12.9375 45.0061C12.7604 45.334 12.5572 45.6504 12.3262 45.9541C12.097 46.2578 11.8417 46.5473 11.5604 46.8226C11.2808 47.0979 10.9769 47.3548 10.6522 47.596C10.3275 47.8359 9.98536 48.0572 9.62243 48.2573C9.25949 48.4588 8.88092 48.6391 8.48846 48.7966C8.09427 48.9541 7.68966 49.0889 7.27289 49.201C6.85612 49.3132 6.43066 49.3997 6 49.4636C6.99504 50.508 7.59414 51.6873 7.79732 53Z"
                fill="white"
            />
            <path
                d="M20.0008 22C20.4661 22 20.8908 21.8716 21.2778 21.6133L21.7777 21.2779C22.0879 21.071 22.4116 20.8867 22.7505 20.7281C23.0878 20.568 23.4356 20.435 23.7925 20.3263C24.1494 20.219 24.5123 20.1375 24.8827 20.0831C25.2516 20.0272 25.622 20 25.9955 20C26.3689 20 26.7409 20.0272 27.1098 20.0831C27.4787 20.1375 27.8431 20.219 28.2 20.3263C28.5569 20.435 28.9047 20.568 29.242 20.7281C29.5793 20.8867 29.9031 21.071 30.2148 21.2779L30.7147 21.6133C31.1032 21.8731 31.5309 22.0015 31.9992 22C32.2145 22 32.4087 21.9381 32.5834 21.8112C32.7581 21.6858 32.8801 21.5211 32.9478 21.3172C33.0156 21.1118 33.0171 20.9078 32.9538 20.7024C32.8891 20.497 32.7716 20.3293 32.5985 20.2009C32.1256 19.8459 31.6287 19.5317 31.1047 19.2568C30.5807 18.9819 30.0386 18.7523 29.4784 18.565C28.9168 18.3776 28.3446 18.2372 27.7618 18.142C27.1791 18.0483 26.5918 18 26 18C25.4082 18 24.8209 18.0483 24.2382 18.142C23.6554 18.2372 23.0832 18.3776 22.5216 18.565C21.9614 18.7523 21.4193 18.9819 20.8953 19.2568C20.3713 19.5317 19.8744 19.8459 19.4015 20.2009C19.2284 20.3293 19.1109 20.497 19.0462 20.7024C18.9829 20.9078 18.9844 21.1118 19.0522 21.3172C19.1199 21.5211 19.2419 21.6858 19.4166 21.8112C19.5913 21.9381 19.7855 22 20.0008 22Z"
                fill="white"
            />
            <path
                d="M38.1476 44C37.5187 44.0582 36.9058 44.1845 36.3124 44.379C35.7173 44.5735 35.1609 44.829 34.64 45.147C34.1207 45.4636 33.653 45.8326 33.2386 46.2543C32.8241 46.6744 32.4757 47.1344 32.1935 47.6326L32 47.9733C32.3209 48.0855 32.6241 48.2303 32.9047 48.4077C33.1869 48.5838 33.4418 48.7868 33.6675 49.0181C33.8933 49.2481 34.0836 49.4994 34.2417 49.7705C34.3981 50.0416 34.5158 50.3256 34.5948 50.6208C34.9319 50.6904 35.256 50.794 35.5657 50.9317C35.8753 51.0694 36.1608 51.2369 36.4236 51.4356C36.6881 51.6344 36.9204 51.8573 37.1219 52.1057C37.3235 52.3527 37.488 52.6181 37.6154 52.9006C38.354 52.6139 39.1265 52.4521 39.9329 52.4166C40.7409 52.3811 41.5278 52.4748 42.2939 52.6962L43.3357 53C43.5228 51.6883 44.0775 50.5087 45 49.4639C44.6 49.4 44.2065 49.3134 43.8195 49.2013C43.4325 49.0891 43.0551 48.9543 42.6906 48.7967C42.3245 48.6391 41.9746 48.4588 41.6375 48.2587C41.3005 48.0571 40.9811 47.8356 40.6796 47.5957C40.378 47.3558 40.0974 47.0975 39.8377 46.8235C39.5765 46.5481 39.3394 46.2585 39.1249 45.9547C38.912 45.6495 38.7234 45.3344 38.5589 45.0079C38.396 44.68 38.2589 44.3435 38.1476 44Z"
                fill="white"
            />
            <path
                d="M4.6498 48H5.61601C5.99396 48.0012 6.37033 47.9769 6.74195 47.9273C7.11515 47.8776 7.47887 47.8037 7.83468 47.7043C8.19048 47.6061 8.53206 47.485 8.8594 47.3408C9.18675 47.1966 9.49669 47.0318 9.78608 46.8452C10.0755 46.6598 10.3427 46.4562 10.5847 46.2345C10.8282 46.0127 11.0449 45.7777 11.233 45.5268C11.4212 45.276 11.5809 45.0155 11.709 44.744C11.8387 44.4726 11.9352 44.1939 12 43.9092C11.9953 43.3542 11.9415 42.8017 11.8419 42.2515C11.7407 41.7014 11.592 41.1598 11.3975 40.6254C11.203 40.0898 10.9626 39.5676 10.6764 39.0574C10.3902 38.5461 10.0628 38.0529 9.6912 37.5755C9.31958 37.0981 8.90842 36.6412 8.45773 36.2062C8.00704 35.77 7.52156 35.3592 6.99971 34.9727C6.47786 34.5874 5.92438 34.2287 5.34086 33.8979C4.75733 33.5683 4.14692 33.2678 3.51121 33C2.33468 37.5525 1.49813 42.14 1 46.764C1.46809 47.1554 2.01998 47.4583 2.65569 47.674C3.28982 47.8885 3.95558 47.9975 4.6498 48Z"
                fill="white"
            />
            <path
                d="M30.3376 32C31.6852 32.0012 33.0082 31.8767 34.3084 31.6265C35.607 31.3763 36.8386 31.0098 38 30.5257L37.2013 29.7705C36.7357 29.3272 36.3796 28.842 36.133 28.3172C35.8863 27.7924 35.7622 27.2525 35.7606 26.6986C35.7589 26.004 35.9762 25.3454 36.4107 24.7228C36.6982 24.3179 36.8419 23.8897 36.8452 23.4359C36.8452 23.3056 36.8174 23.1787 36.7619 23.0554C36.7047 22.9309 36.6247 22.8157 36.5168 22.711C36.409 22.6051 36.2816 22.5131 36.1346 22.4364C35.9876 22.3596 35.8259 22.3002 35.6528 22.2595L35.4355 22.2071C35.3032 22.4038 35.1366 22.5841 34.9324 22.747C34.7299 22.9111 34.4979 23.0507 34.2398 23.1671C33.9801 23.2846 33.7024 23.373 33.4084 23.4336C33.1144 23.4952 32.8139 23.5266 32.5068 23.5266C31.5643 23.5278 30.7018 23.3416 29.9178 22.9704L29.3755 22.711C28.874 22.4794 28.3366 22.3025 27.7617 22.1815C27.1883 22.0605 26.6019 22 26.0041 22C25.4046 22 24.8182 22.0605 24.2449 22.1815C23.6715 22.3025 23.1325 22.4794 22.631 22.711L22.0887 22.9704C21.3031 23.3428 20.4374 23.529 19.4916 23.5266C19.1845 23.5266 18.884 23.4952 18.5899 23.4347C18.2943 23.3742 18.0182 23.2846 17.7585 23.1683C17.4988 23.0507 17.2685 22.9111 17.0643 22.7482C16.8618 22.5841 16.6952 22.4049 16.5629 22.2071L16.3456 22.2595C16.1725 22.3002 16.0108 22.3596 15.8637 22.4364C15.7167 22.5131 15.5893 22.6051 15.4815 22.711C15.3737 22.8157 15.2937 22.9309 15.2365 23.0554C15.181 23.1787 15.1532 23.3056 15.1532 23.4359C15.1548 23.8885 15.2969 24.3179 15.5812 24.7228C16.0189 25.3454 16.2378 26.004 16.2378 26.6986C16.2362 27.2525 16.112 27.7924 15.8654 28.3172C15.6187 28.842 15.2626 29.3272 14.7971 29.7705L14 30.5245C15.1614 31.0086 16.3913 31.3763 17.6916 31.6265C18.9901 31.8767 20.3148 32.0012 21.6608 32H30.3376ZM29.1452 27.804L30.2298 29.3447L28.2876 30.0335L27.203 28.4929L29.1452 27.804ZM22.8646 27.804L24.8068 28.4929L23.7222 30.0335L21.78 29.3447L22.8646 27.804Z"
                fill="white"
            />
            <path
                d="M40 43.9092C40.0648 44.1939 40.1613 44.4726 40.291 44.744C40.4191 45.0155 40.5789 45.2772 40.7671 45.5268C40.9569 45.7777 41.172 46.0139 41.4155 46.2357C41.6591 46.4562 41.9248 46.6598 42.2158 46.8464C42.5052 47.0318 42.8137 47.1966 43.1426 47.3408C43.47 47.485 43.8116 47.6061 44.1675 47.7055C44.5234 47.8037 44.8871 47.8776 45.2604 47.9273C45.6336 47.9769 46.0085 48.0012 46.3865 48H47.3513C48.0456 47.9975 48.7098 47.8885 49.3441 47.674C49.9799 47.4595 50.5303 47.1566 51 46.7652C50.5034 42.14 49.6683 37.5525 48.4948 33C47.859 33.2678 47.2485 33.5671 46.6633 33.8979C46.0797 34.2287 45.5261 34.5861 45.0042 34.9727C44.4822 35.3592 43.9951 35.77 43.5444 36.205C43.0936 36.6412 42.6824 37.0981 42.3107 37.5743C41.939 38.0517 41.6101 38.5461 41.3254 39.0562C41.0391 39.5663 40.7987 40.0898 40.6026 40.6242C40.4081 41.1598 40.2594 41.7014 40.1597 42.2515C40.0585 42.8017 40.0047 43.3542 40 43.9092Z"
                fill="white"
            />
            <path
                d="M36.9296 34.9506C37.2314 34.8613 37.5104 34.7325 37.7666 34.5642C38.0227 34.3959 38.243 34.1954 38.429 33.9656C38.615 33.7344 38.7569 33.4841 38.8548 33.2133C38.9511 32.9426 39 32.6659 39 32.382C38.9984 32.2532 38.9869 32.1273 38.9657 32C37.6524 32.6776 36.2656 33.1914 34.8005 33.5397C33.337 33.8895 31.849 34.0637 30.3333 34.0622H21.6667C20.1526 34.0637 18.663 33.8895 17.1995 33.5397C15.7361 33.1914 14.3476 32.6776 13.0343 32.0015C13.0131 32.1273 13.0016 32.2547 13 32.382C13 32.6659 13.0489 32.9426 13.1452 33.2133C13.2431 33.4841 13.385 33.7344 13.571 33.9656C13.757 34.1954 13.9773 34.3959 14.2334 34.5642C14.4896 34.7325 14.7686 34.8613 15.0704 34.9506C17.4182 35.6517 19.8296 36.0015 22.3062 36H29.6938C32.1704 36.0015 34.5818 35.6517 36.9296 34.9506Z"
                fill="white"
            />
            <path
                d="M51.6215 48.6079C50.5267 49.1423 49.3259 49.4347 48.0207 49.4863C47.6291 49.7038 47.2767 49.9507 46.9635 50.2296C46.6502 50.5085 46.3843 50.8119 46.164 51.1375C45.9454 51.463 45.7806 51.8033 45.668 52.1584C45.5555 52.5146 45.5 52.8746 45.5 53.2395V53.5601C45.5 53.6682 45.4723 53.7714 45.4168 53.8722C45.363 53.9717 45.2846 54.0589 45.1835 54.1351C45.0807 54.2113 44.9632 54.2702 44.8311 54.312C44.6989 54.3525 44.5602 54.3734 44.4167 54.3734C44.2992 54.3734 44.185 54.3599 44.074 54.3316L41.661 53.7284C41.1128 53.5921 40.55 53.5405 39.9757 53.5712C39.3997 53.6019 38.8532 53.7137 38.336 53.9066L37.3179 54.2886C37.2347 54.3194 37.1482 54.3415 37.0585 54.3562C36.9671 54.371 36.8758 54.3759 36.7844 54.3734C36.6914 54.3697 36.6017 54.3587 36.5136 54.3378C36.4255 54.3169 36.3422 54.2886 36.2639 54.253C36.1856 54.2162 36.1138 54.1732 36.0502 54.1228C35.9866 54.0724 35.9311 54.0171 35.887 53.9569C35.8414 53.8955 35.8071 53.8316 35.7843 53.7653C35.7614 53.6977 35.75 53.6302 35.75 53.5601C35.75 53.4532 35.7353 53.3476 35.7076 53.2432C35.6798 53.1387 35.6391 53.0368 35.5852 52.9385C35.5314 52.839 35.4645 52.7456 35.3845 52.6572C35.3062 52.5675 35.2165 52.4852 35.1153 52.4102C35.0142 52.3353 34.9049 52.2677 34.7874 52.2075C34.6683 52.1485 34.5443 52.0982 34.4121 52.0576C34.2816 52.0171 34.1462 51.9864 34.0059 51.9655C33.8672 51.9446 33.7253 51.9336 33.5833 51.9336C33.4398 51.9336 33.3011 51.9127 33.1689 51.8721C33.0368 51.8304 32.9193 51.7714 32.8165 51.6952C32.7154 51.619 32.637 51.5318 32.5832 51.4323C32.5277 51.3316 32.5 51.2284 32.5 51.1203C32.5 51.0134 32.4853 50.9077 32.4576 50.8033C32.4298 50.6989 32.3891 50.5969 32.3352 50.4986C32.2814 50.3991 32.2145 50.3057 32.1345 50.2173C32.0562 50.1276 31.9665 50.0453 31.8653 49.9704C31.7642 49.8954 31.6549 49.8278 31.5374 49.7677C31.4183 49.7087 31.2943 49.6583 31.1621 49.6178C31.0316 49.5772 30.8962 49.5465 30.7559 49.5256C30.6172 49.5047 30.4753 49.4937 30.3333 49.4937C30.2403 49.4949 30.149 49.4863 30.0592 49.4691C29.9695 49.4519 29.8847 49.4261 29.8031 49.3929C29.7231 49.3585 29.6481 49.318 29.5812 49.2701C29.5143 49.2222 29.4556 49.1694 29.4083 49.1104C29.3593 49.0514 29.3202 48.9888 29.2924 48.9224C29.2647 48.8561 29.25 48.7885 29.2451 48.7185C29.2402 48.6497 29.2484 48.5809 29.2679 48.5121C29.2859 48.4445 29.3169 48.3794 29.3577 48.3168L30.1865 47.0735C30.552 46.5182 31.0055 46.0071 31.5456 45.5378C32.084 45.0685 32.6925 44.657 33.3696 44.3044C34.0483 43.9506 34.7727 43.6655 35.5477 43.4493C36.321 43.2343 37.1172 43.0943 37.9379 43.0292C37.9852 42.4026 38.0847 41.7797 38.2397 41.163C38.3947 40.5463 38.6019 39.9394 38.863 39.3423C39.1224 38.7465 39.434 38.1642 39.7962 37.599C40.1584 37.0327 40.5679 36.4872 41.0264 35.9614C41.4832 35.4356 41.9841 34.9344 42.529 34.4589C43.0739 33.9822 43.658 33.5351 44.2813 33.1161C44.9045 32.6972 45.562 32.3102 46.2521 31.9564C46.9423 31.6026 47.6618 31.2832 48.4074 30.9994C47.5557 27.9637 46.5589 24.9501 45.4152 21.9611L44.3432 19.1797C44.1997 18.8099 44.0382 18.4438 43.8554 18.0838C43.6743 17.7239 43.4736 17.37 43.2534 17.0224C43.0331 16.6735 42.7949 16.3332 42.5388 15.999C42.2826 15.6661 42.0085 15.3405 41.7165 15.0235C41.4261 14.7066 41.1177 14.3982 40.793 14.0997C40.4684 13.8012 40.129 13.5137 39.7733 13.236C39.4177 12.9584 39.0489 12.6918 38.6639 12.4363C38.2805 12.1807 37.884 11.9375 37.4729 11.7053C37.0634 11.4743 36.6408 11.2556 36.2068 11.0492C35.7745 10.8441 35.3291 10.6512 34.8755 10.4718C34.4219 10.2925 33.9586 10.1278 33.4854 9.97673C33.0139 9.82562 32.5343 9.68926 32.0481 9.56763C31.5619 9.44601 31.0692 9.3379 30.5699 9.24576C30.0723 9.15362 29.5698 9.07745 29.064 9.01479C28.5566 8.95337 28.0476 8.90668 27.5369 8.87597C27.0246 8.84526 26.5123 8.82928 26 8.82928C25.4877 8.82928 24.9754 8.84526 24.4631 8.87597C23.9524 8.90668 23.4434 8.95337 22.936 9.01479C22.4302 9.07745 21.9277 9.15362 21.4301 9.24576C20.9308 9.3379 20.4381 9.44601 19.9519 9.56763C19.4657 9.68926 18.9861 9.82562 18.5146 9.97673C18.0414 10.1278 17.5781 10.2925 17.1245 10.4718C16.6709 10.6512 16.2255 10.8441 15.7932 11.0492C15.3592 11.2556 14.9366 11.4743 14.5271 11.7053C14.116 11.9375 13.7195 12.1807 13.3361 12.4363C12.9511 12.6918 12.5823 12.9584 12.2267 13.236C11.871 13.5137 11.5316 13.8012 11.207 14.0997C10.8823 14.3982 10.5739 14.7066 10.2835 15.0235C9.99147 15.3405 9.71737 15.6661 9.46122 15.999C9.20507 16.3332 8.96687 16.6735 8.74661 17.0224C8.52636 17.37 8.32568 17.7239 8.14458 18.0838C7.96185 18.4438 7.80033 18.8099 7.65675 19.1797L6.58484 21.9611C5.43298 24.9476 4.43612 27.9612 3.59262 30.9994C4.33823 31.2832 5.0561 31.6026 5.74624 31.9564C6.438 32.3114 7.09388 32.6972 7.71712 33.1161C8.33873 33.5351 8.92282 33.9835 9.46775 34.4589C10.0127 34.9356 10.5136 35.4368 10.9704 35.9626C11.4288 36.4872 11.8384 37.0339 12.1989 37.599C12.5611 38.1654 12.8727 38.7465 13.1338 39.3436C13.3932 39.9394 13.6004 40.5463 13.7554 41.163C13.9104 41.781 14.0099 42.4026 14.0556 43.0292C14.8763 43.093 15.6741 43.2343 16.4474 43.4493C17.2208 43.6655 17.9468 43.9506 18.6239 44.3031C19.3026 44.657 19.9111 45.0685 20.4495 45.5378C20.9896 46.0071 21.4415 46.5182 21.8086 47.0735L22.6358 48.3168C22.6782 48.3794 22.7076 48.4445 22.7272 48.5121C22.7467 48.5797 22.7533 48.6485 22.75 48.7173C22.7451 48.7873 22.7288 48.8549 22.7027 48.9212C22.675 48.9875 22.6374 49.049 22.5885 49.1079C22.5395 49.1669 22.4824 49.221 22.4155 49.2689C22.3486 49.3168 22.2752 49.3573 22.1937 49.3917C22.1137 49.4249 22.0289 49.4507 21.9391 49.4679C21.8494 49.4851 21.7597 49.4937 21.6667 49.4937C21.5247 49.4937 21.3828 49.5047 21.2441 49.5256C21.1038 49.5465 20.9684 49.5772 20.8379 49.6178C20.7057 49.6583 20.5817 49.7087 20.4626 49.7677C20.3451 49.8278 20.2358 49.8954 20.1347 49.9704C20.0335 50.0453 19.9438 50.1276 19.8655 50.2173C19.7855 50.3057 19.7186 50.3991 19.6648 50.4986C19.6109 50.5969 19.5702 50.6989 19.5424 50.8033C19.5147 50.9077 19.5 51.0134 19.5 51.1203C19.5 51.2284 19.4723 51.3316 19.4168 51.4323C19.363 51.5318 19.2846 51.619 19.1835 51.6952C19.0807 51.7714 18.9632 51.8304 18.8311 51.8721C18.6989 51.9127 18.5602 51.9336 18.4167 51.9336C18.2747 51.9336 18.1328 51.9446 17.9941 51.9655C17.8538 51.9864 17.7184 52.0171 17.5879 52.0576C17.4557 52.0982 17.3317 52.1485 17.2126 52.2075C17.0951 52.2677 16.9858 52.3353 16.8847 52.4102C16.7835 52.4852 16.6938 52.5675 16.6155 52.6572C16.5355 52.7456 16.4686 52.839 16.4148 52.9385C16.3609 53.0368 16.3202 53.1387 16.2924 53.2432C16.2647 53.3476 16.25 53.4532 16.25 53.5601C16.25 53.6302 16.2386 53.6977 16.2157 53.7653C16.1929 53.8329 16.1603 53.8967 16.1146 53.9582C16.0705 54.0184 16.0167 54.0749 15.9531 54.1253C15.8894 54.1756 15.8176 54.2186 15.7393 54.2555C15.661 54.2923 15.5762 54.3206 15.4881 54.3415C15.4 54.3624 15.3102 54.3746 15.2172 54.3771C15.1242 54.3808 15.0329 54.3746 14.9431 54.3611C14.8518 54.3464 14.7653 54.323 14.6821 54.2923L13.664 53.9103C13.1468 53.7174 12.6003 53.6068 12.0243 53.5761C11.4501 53.5442 10.8872 53.597 10.339 53.7321L7.92595 54.3353C7.81501 54.3624 7.7008 54.3746 7.58333 54.3734C7.43976 54.3734 7.30108 54.3525 7.16893 54.312C7.03677 54.2702 6.9193 54.2113 6.81652 54.1351C6.71536 54.0589 6.63705 53.9717 6.58321 53.8722C6.52774 53.7714 6.5 53.6682 6.5 53.5601V53.2346C6.5 52.8697 6.44453 52.5097 6.33195 52.1547C6.22101 51.7996 6.05459 51.4593 5.83597 51.1338C5.61734 50.807 5.35141 50.5048 5.03652 50.2259C4.72327 49.947 4.37086 49.6989 3.98092 49.4826C2.6757 49.4323 1.4749 49.1399 0.378514 48.6079C0.163153 51.0674 0.024473 53.5306 0 56H52C51.9755 53.5306 51.8368 51.0674 51.6215 48.6079ZM34.6667 13.709C34.8086 13.709 34.9506 13.7201 35.0892 13.741C35.2295 13.7618 35.365 13.7926 35.4955 13.8331C35.6276 13.8736 35.7516 13.924 35.8707 13.983C35.9882 14.0432 36.0975 14.1107 36.1987 14.1857C36.2998 14.2606 36.3896 14.3429 36.4679 14.4326C36.5478 14.5211 36.6147 14.6144 36.6686 14.714C36.7224 14.8122 36.7632 14.9142 36.7909 15.0186C36.8187 15.1231 36.8333 15.2287 36.8333 15.3356C36.8333 15.4425 36.8187 15.5481 36.7909 15.6538C36.7632 15.7582 36.7224 15.8602 36.6686 15.9585C36.6147 16.0567 36.5478 16.1513 36.4679 16.2398C36.3896 16.3282 36.2998 16.4106 36.1987 16.4855C36.0975 16.5617 35.9882 16.6292 35.8707 16.6882C35.7516 16.7472 35.6276 16.7975 35.4955 16.8381C35.365 16.8799 35.2295 16.9106 35.0892 16.9315C34.9506 16.9523 34.8086 16.9622 34.6667 16.9622C34.5247 16.9622 34.3828 16.9523 34.2441 16.9315C34.1038 16.9106 33.9684 16.8799 33.8379 16.8381C33.7057 16.7975 33.5817 16.7472 33.4626 16.6882C33.3451 16.6292 33.2358 16.5617 33.1347 16.4855C33.0335 16.4106 32.9438 16.3282 32.8655 16.2398C32.7855 16.1513 32.7186 16.0567 32.6648 15.9585C32.6109 15.8602 32.5702 15.7582 32.5424 15.6538C32.5147 15.5481 32.5 15.4425 32.5 15.3356C32.5 15.2287 32.5147 15.1231 32.5424 15.0186C32.5702 14.9142 32.6109 14.8122 32.6648 14.714C32.7186 14.6144 32.7855 14.5211 32.8655 14.4326C32.9438 14.3429 33.0335 14.2606 33.1347 14.1857C33.2358 14.1107 33.3451 14.0432 33.4626 13.983C33.5817 13.924 33.7057 13.8736 33.8379 13.8331C33.9684 13.7926 34.1038 13.7618 34.2441 13.741C34.3828 13.7201 34.5247 13.709 34.6667 13.709ZM17.3333 13.709C17.4753 13.709 17.6172 13.7201 17.7559 13.741C17.8962 13.7618 18.0316 13.7926 18.1621 13.8331C18.2943 13.8736 18.4183 13.924 18.5374 13.983C18.6549 14.0432 18.7642 14.1107 18.8653 14.1857C18.9665 14.2606 19.0562 14.3429 19.1345 14.4326C19.2145 14.5211 19.2814 14.6144 19.3352 14.714C19.3891 14.8122 19.4298 14.9142 19.4576 15.0186C19.4853 15.1231 19.5 15.2287 19.5 15.3356C19.5 15.4425 19.4853 15.5481 19.4576 15.6538C19.4298 15.7582 19.3891 15.8602 19.3352 15.9585C19.2814 16.0567 19.2145 16.1513 19.1345 16.2398C19.0562 16.3282 18.9665 16.4106 18.8653 16.4855C18.7642 16.5617 18.6549 16.6292 18.5374 16.6882C18.4183 16.7472 18.2943 16.7975 18.1621 16.8381C18.0316 16.8799 17.8962 16.9106 17.7559 16.9315C17.6172 16.9523 17.4753 16.9622 17.3333 16.9622C17.1914 16.9622 17.0494 16.9523 16.9108 16.9315C16.7705 16.9106 16.635 16.8799 16.5045 16.8381C16.3724 16.7975 16.2484 16.7472 16.1293 16.6882C16.0118 16.6292 15.9025 16.5617 15.8013 16.4855C15.7002 16.4106 15.6104 16.3282 15.5321 16.2398C15.4522 16.1513 15.3853 16.0567 15.3315 15.9585C15.2776 15.8602 15.2368 15.7582 15.2091 15.6538C15.1814 15.5481 15.1667 15.4425 15.1667 15.3356C15.1667 15.2287 15.1814 15.1231 15.2091 15.0186C15.2368 14.9142 15.2776 14.8122 15.3315 14.714C15.3853 14.6144 15.4522 14.5211 15.5321 14.4326C15.6104 14.3429 15.7002 14.2606 15.8013 14.1857C15.9025 14.1107 16.0118 14.0432 16.1293 13.983C16.2484 13.924 16.3724 13.8736 16.5045 13.8331C16.635 13.7926 16.7705 13.7618 16.9108 13.741C17.0494 13.7201 17.1914 13.709 17.3333 13.709ZM22.3062 37.2944C19.5963 37.2956 16.9548 36.9737 14.3852 36.3287C14.1894 36.2808 14.0001 36.2231 13.8141 36.158C13.6298 36.0929 13.4487 36.0192 13.2757 35.9368C13.1012 35.8558 12.9347 35.7673 12.7748 35.6702C12.615 35.5744 12.4632 35.4712 12.3197 35.3619C12.1761 35.2513 12.0423 35.1358 11.9167 35.0142C11.791 34.8926 11.6752 34.7648 11.5708 34.6334C11.4647 34.5007 11.3701 34.3643 11.2869 34.2243C11.2021 34.0842 11.1303 33.9405 11.0699 33.7931C11.0079 33.6469 10.959 33.497 10.9214 33.3459C10.8839 33.1948 10.8578 33.0424 10.8448 32.8889C10.8301 32.7353 10.8301 32.5817 10.8399 32.4282C10.8513 32.2746 10.8741 32.121 10.9084 31.9699C10.9426 31.8176 10.99 31.6689 11.0487 31.5203C11.1058 31.3728 11.176 31.2291 11.2575 31.0878C11.3391 30.9465 11.4305 30.8089 11.5333 30.6763C11.636 30.5424 11.7486 30.4146 11.8726 30.2917L13.0767 29.0841C13.403 28.7573 13.651 28.3998 13.8239 28.0116C13.9952 27.6246 14.0817 27.2265 14.0833 26.8174C14.0817 26.3395 13.9398 25.8862 13.6559 25.4587C13.2186 24.8027 13 24.1073 13 23.3726C13 23.0643 13.062 22.7633 13.1876 22.4697C13.3149 22.1773 13.4976 21.9045 13.7375 21.6552C13.9773 21.4045 14.2628 21.1883 14.594 21.0065C14.9252 20.8234 15.2858 20.6834 15.6741 20.5863L16.3642 20.4143C16.5535 19.8652 16.9483 19.4192 17.5503 19.0765C18.1556 18.7362 18.7936 18.4339 19.4641 18.1698C20.1347 17.9069 20.8281 17.6845 21.5459 17.5052C22.2638 17.3258 22.9964 17.1894 23.7436 17.0985C24.4908 17.0076 25.243 16.9622 26 16.9622C26.757 16.9622 27.5092 17.0076 28.2564 17.0985C29.0036 17.1894 29.7362 17.3258 30.4541 17.5052C31.1719 17.6845 31.8653 17.9069 32.5359 18.1698C33.2065 18.4339 33.8444 18.7362 34.4497 19.0765C35.0533 19.4192 35.4514 19.8652 35.6423 20.4143L36.3308 20.5863C36.7191 20.6846 37.0797 20.8247 37.4093 21.0065C37.7405 21.1895 38.026 21.4058 38.2642 21.6564C38.504 21.9058 38.6867 22.1773 38.8124 22.4709C38.938 22.7645 39 23.0643 39 23.3726C39.0016 24.1061 38.7846 24.8014 38.3507 25.4587C38.0635 25.8862 37.9199 26.3395 37.9167 26.8174C37.9183 27.2265 38.0048 27.6246 38.1761 28.0128C38.349 28.3998 38.597 28.7573 38.9233 29.0853L40.1274 30.2905C40.2514 30.4134 40.364 30.5424 40.4667 30.675C40.5695 30.8077 40.6609 30.9453 40.7425 31.0866C40.824 31.2279 40.8942 31.3728 40.9513 31.5203C41.01 31.6677 41.0574 31.8176 41.0916 31.9687C41.1259 32.121 41.1487 32.2734 41.1601 32.4269C41.1699 32.5805 41.1683 32.7341 41.1552 32.8876C41.1422 33.0412 41.1161 33.1935 41.0786 33.3459C41.041 33.497 40.9921 33.6456 40.9301 33.7931C40.8697 33.9392 40.7979 34.083 40.7131 34.2243C40.6299 34.3643 40.5353 34.5007 40.4292 34.6321C40.3248 34.7648 40.209 34.8914 40.0833 35.013C39.9577 35.1358 39.8239 35.2513 39.6803 35.3607C39.5368 35.4712 39.385 35.5744 39.2252 35.6702C39.0653 35.7673 38.8988 35.8558 38.7243 35.9368C38.5513 36.0192 38.3702 36.0929 38.1859 36.158C37.9999 36.2231 37.8106 36.2808 37.6148 36.3287C35.0452 36.9737 32.4037 37.2956 29.6938 37.2944H22.3062Z"
                fill="white"
            />
            <path
                d="M31.1687 2.28123C31.1083 2.14855 31.0496 2.05273 31.0186 1.95076C30.8701 1.479 31.278 1.13993 31.9175 1.20135C32.4951 1.25541 33.0074 1.73945 32.5408 2.09573C32.2471 2.32178 32.1574 2.17558 32.3972 2.66454C34.7189 7.3821 34.4709 7.2703 34.8934 7.02214C35.2361 6.82066 36.1775 6.12654 37.1303 5.47542C39.0636 4.15229 39.7374 4.3636 39.6803 3.79479C39.62 3.20018 40.0735 2.76528 40.7343 2.93358C41.4669 3.12155 41.5827 3.81321 40.8877 4.18669C40.1959 4.55893 41.2189 3.30092 38.2462 10.3085C37.5365 11.9842 38.256 11.2249 31.5472 10.6623C29.7264 10.5099 22.9996 9.6942 20.5262 9.94359C17.038 10.2949 16.6481 10.8429 16.418 10.123C14.6707 4.64247 15.0786 3.95327 14.5157 3.74564C13.7048 3.44711 13.7994 2.25544 14.9644 2.44463C15.5126 2.53431 15.7083 2.79476 15.6659 3.06749C15.5599 3.73213 14.8175 2.9729 20.0221 5.75675C20.8199 6.18305 20.4822 6.23465 21.9 3.10066C22.21 2.4176 22.4759 1.98024 22.6652 1.50357C21.1152 0.299612 23.1367 -0.517361 23.9116 0.381924C24.2037 0.720999 23.9492 0.926164 23.6963 1.21241C24.1205 2.06256 24.2951 1.96796 26.4715 6.01597C26.8337 6.69043 26.7587 6.50493 31.1687 2.28123ZM22.9327 0.432294C22.5395 0.569889 22.7157 0.96302 22.9229 1.02199C23.3178 1.13379 23.7877 0.416323 22.9327 0.432294ZM40.7751 3.60313C40.8306 3.39797 40.395 3.22966 40.2807 3.4766C40.0132 4.06629 40.6739 3.98275 40.7751 3.60313ZM14.5646 3.06258C14.5728 3.29969 14.8404 3.37708 14.9448 3.26529C15.3461 2.83285 14.5548 2.73333 14.5646 3.06258ZM32.0823 1.82913C32.1623 1.63994 31.6663 1.51709 31.5651 1.73331C31.4623 1.95936 31.9828 2.06993 32.0823 1.82913Z"
                fill="white"
            />
            <path
                d="M33.5512 7.88247C39.1018 5.99262 38.8408 5.27459 36.1256 9.86948C35.8365 10.3588 26.4889 9.34341 18.1231 8.94174C17.8073 8.92752 17.7917 8.79126 17.7276 8.53296C16.6521 4.22718 16.2661 4.67506 20.2145 7.0744C20.4146 7.01516 20.2005 7.17867 23.1376 4.31012C23.7863 3.67622 23.6159 3.80418 26.0575 6.72012C26.4077 7.13838 26.3342 7.14075 26.8219 6.88245C31.5207 4.39069 31.1424 4.34329 31.6363 5.07435C33.7044 8.13129 33.1119 7.27582 33.5512 7.88247ZM18.3435 8.44173C18.5545 8.54007 34.8533 9.63251 35.602 9.59815C35.7114 9.49862 35.5348 9.79484 37.0401 7.26161C37.0557 7.23554 37.0338 7.19525 37.026 7.13483C33.2526 8.37893 33.473 8.75808 32.9431 7.97252C31.0111 5.11108 31.1643 5.29 30.9954 5.22128C30.4077 5.51157 31.405 4.99023 26.8844 7.38839C26.0075 7.85285 26.367 7.89432 23.9238 4.99023C23.5925 4.59686 23.6128 4.56368 23.2282 4.93928C20.1676 7.92631 20.5209 7.85048 19.8128 7.40142C17.6494 6.03172 18.1434 6.31609 17.7901 6.17627C17.7854 6.50803 18.1793 8.10167 18.3435 8.44173Z"
                fill="black"
            />
        </svg>